<?xml version="1.0" encoding="UTF-8" standalone="no"?>
<svg
   xmlns:dc="http://purl.org/dc/elements/1.1/"
   xmlns:cc="http://creativecommons.org/ns#"
   xmlns:rdf="http://www.w3.org/1999/02/22-rdf-syntax-ns#"
   xmlns:svg="http://www.w3.org/2000/svg"
   xmlns="http://www.w3.org/2000/svg"
   xmlns:sodipodi="http://sodipodi.sourceforge.net/DTD/sodipodi-0.dtd"
   xmlns:inkscape="http://www.inkscape.org/namespaces/inkscape"
   width="744.09448"
   height="1052.3622"
   viewBox="0 0 773.85826 926.07872"
   version="1.0"
   id="svg2"
   sodipodi:version="0.32"
   inkscape:version="0.48.1 r9760"
   sodipodi:docname="icon.svg"
   inkscape:output_extension="org.inkscape.output.svg.inkscape">
  <metadata
     id="metadata23">
    <rdf:RDF>
      <cc:Work
         rdf:about="">
        <dc:format>image/svg+xml</dc:format>
        <dc:type
           rdf:resource="http://purl.org/dc/dcmitype/StillImage" />
        <dc:title></dc:title>
      </cc:Work>
    </rdf:RDF>
  </metadata>
  <defs
     id="defs21">
    <inkscape:perspective
       sodipodi:type="inkscape:persp3d"
       inkscape:vp_x="0 : 27.5 : 1"
       inkscape:vp_y="0 : 1000 : 0"
       inkscape:vp_z="65 : 27.5 : 1"
       inkscape:persp3d-origin="32.5 : 18.333333 : 1"
       id="perspective25" />
    <filter
       inkscape:collect="always"
       id="filter4003">
      <feGaussianBlur
         inkscape:collect="always"
         stdDeviation="0.7197024"
         id="feGaussianBlur4005" />
    </filter>
    <filter
       inkscape:collect="always"
       id="filter4007"
       x="-0.078623212"
       width="1.1572464"
       y="-0.15096583"
       height="1.3019317">
      <feGaussianBlur
         inkscape:collect="always"
         stdDeviation="7.5760725"
         id="feGaussianBlur4009" />
    </filter>
    <filter
       inkscape:collect="always"
       id="filter4663">
      <feGaussianBlur
         inkscape:collect="always"
         stdDeviation="0.70722644"
         id="feGaussianBlur4665" />
    </filter>
  </defs>
  <sodipodi:namedview
     inkscape:window-height="724"
     inkscape:window-width="1280"
     inkscape:pageshadow="2"
     inkscape:pageopacity="0.0"
     guidetolerance="10.0"
     gridtolerance="10.0"
     objecttolerance="10.0"
     borderopacity="1.0"
     bordercolor="#666666"
     pagecolor="#ffffff"
     id="base"
     showgrid="false"
     inkscape:zoom="0.66163733"
     inkscape:cx="542.32078"
     inkscape:cy="359.48216"
     inkscape:window-x="1280"
     inkscape:window-y="250"
     inkscape:current-layer="svg2"
     inkscape:window-maximized="1" />
  <g
     id="g3180"
     transform="matrix(1.300208,0,0,1.2984152,-9.1419698,1035.8869)">
    <path
       d="m 15.96,10.06 c 7.64,-7.75 22.45,-4.55 26.15,5.7 3.33,7.33 -0.03,15.95 -6.35,20.45 -1.17,-1.08 -2.18,-2.32 -3.25,-3.49 0.66,-0.13 1.97,-0.39 2.63,-0.52 2.044926,-5.305735 0.761544,-10.647941 1.481691,-16.253676 C 36.514926,14.170882 36.47,11.62 33.74,11.43 c -4.46,-0.29 -8.96,-0.29 -13.42,0 -2.24,0.14 -2.98,2.67 -2.76,4.56 0.3,5.4 -0.89,11.09 1.37,16.2 0.66,0.12 1.99,0.37 2.66,0.49 C 20.63,33.84 19.67,35 18.72,36.16 9.51,31.09 7.91,16.89 15.96,10.06 z"
       id="path3182"
       sodipodi:nodetypes="ccccccccccccc"
       style="fill:#ffffff"
       inkscape:connector-curvature="0" />
    <path
       d="m 22.99,14.16 c 0.86,-3.17 7.823861,-4.079969 7.84,-1.53 l 0.01,1.58 c -2.62,0.05 -5.24,0.05 -7.85,-0.05 z"
       id="path3184"
       sodipodi:nodetypes="cscc"
       style="fill:#ffffff"
       inkscape:connector-curvature="0" />
    <path
       d="m 19.386352,15.512779 c 5.051252,-0.417774 10.112856,0.06344 15.164109,-0.06344 0.33123,2.632809 0.341581,5.307912 -0.01035,7.930147 -5.040902,-0.04229 -10.092155,0.02115 -15.143408,-0.05287 -0.134562,-2.601088 -0.134562,-5.21275 -0.01035,-7.813838 z"
       id="path3186"
       style="fill:#ffffff"
       sodipodi:nodetypes="ccccc"
       inkscape:connector-curvature="0" />
    <path
       d="m 20.01,28.03 c 0.51,-0.4 1.53,-1.21 2.04,-1.61 1.13,0.97 1.24,1.97 0.32,2.99 -1.09,0.34 -1.63,-0.84 -2.36,-1.38 z"
       id="path3188"
       style="fill:#ffffff"
       inkscape:connector-curvature="0" />
    <path
       d="m 20.501413,37.463785 c 0.675135,-1.661643 1.350271,-3.323286 2.035955,-4.984928 2.943167,0.04103 5.875786,0.02051 8.818953,-0.02051 0.717331,1.661642 1.434662,3.323284 2.130895,5.025956 -4.209045,3.015573 -8.787306,2.954031 -12.985803,-0.02051 z"
       id="path3190"
       style="fill:#ffffff"
       inkscape:connector-curvature="0" />
  </g>
  <rect
     style="fill:#ffffff;fill-opacity:1;fill-rule:nonzero;stroke:none"
     id="rect3196"
     width="19.201967"
     height="10.487567"
     x="16.367445"
     y="1056.2177" />
  <rect
     style="fill:#ffffff;fill-opacity:1;fill-rule:nonzero;stroke:none"
     id="rect3198"
     width="10.253478"
     height="2.4512362"
     x="20.748472"
     y="1052.215" />
  <path
     sodipodi:type="arc"
     style="fill:#ffffff;fill-opacity:1;fill-rule:nonzero;stroke:none"
     id="path3200"
     sodipodi:cx="32.559742"
     sodipodi:cy="28.275736"
     sodipodi:rx="1.5413603"
     sodipodi:ry="1.5533088"
     d="m 34.101102,28.275736 a 1.5413603,1.5533088 0 1 1 -3.08272,0 1.5413603,1.5533088 0 1 1 3.08272,0 z"
     transform="matrix(1.300208,0,0,1.2984152,-9.5458948,1035.6697)" />
  <path
     transform="matrix(1.300208,0,0,1.2984152,-23.030773,1035.6697)"
     d="m 34.101102,28.275736 a 1.5413603,1.5533088 0 1 1 -3.08272,0 1.5413603,1.5533088 0 1 1 3.08272,0 z"
     sodipodi:ry="1.5533088"
     sodipodi:rx="1.5413603"
     sodipodi:cy="28.275736"
     sodipodi:cx="32.559742"
     id="path3202"
     style="fill:#ffffff;fill-opacity:1;fill-rule:nonzero;stroke:none"
     sodipodi:type="arc" />
  <rect
     style="fill:none;stroke:#000000;stroke-width:0.23814958px;stroke-linecap:butt;stroke-linejoin:miter;stroke-opacity:1"
     id="rect3009"
     width="186.96968"
     height="124.55376"
     x="897.11224"
     y="438.90454"
     inkscape:export-filename="/home/gcc/workspace/MetroSP/design/promo.png"
     inkscape:export-xdpi="90.010002"
     inkscape:export-ydpi="90.010002" />
  <g
     id="g3834"
     transform="matrix(2.5000001,0,0,2.5000001,-391.66453,-814.84225)"
     inkscape:export-filename="/home/gcc/workspace/MetroSP/res/drawable-ldpi/metrosp.png"
     inkscape:export-xdpi="90.010002"
     inkscape:export-ydpi="90.010002">
    <g
       inkscape:export-ydpi="90.010002"
       inkscape:export-xdpi="90.010002"
       inkscape:export-filename="/home/gcc/workspace/MetroSP/res/drawable-hdpi/iconsmall.png"
       id="g3011"
       transform="matrix(0.98773428,0,0,0.98601828,260.59232,476.09214)"
       style="fill:#000000;fill-opacity:1;filter:url(#filter4003)">
      <path
         d="m 21.5,2.75 c 8.53,-2.54 18.3,1.38 22.74,9.07 4.34,7.08 3.57,17.09 -2.05,23.29 -6.42,7.91 -19.28,9.27 -27.2,2.87 C 10.05,34.29 6.84,28.18 7.04,21.96 6.81,13.25 13.25,5.17 21.5,2.75 m -5.54,7.31 c -8.05,6.83 -6.45,21.03 2.76,26.1 0.95,-1.16 1.91,-2.32 2.87,-3.48 -0.67,-0.12 -2,-0.37 -2.66,-0.49 -1.973235,-5.587941 -1.452353,-10.298162 -1.37,-16.2 -0.0049,-1.913897 0.52,-4.42 2.76,-4.56 4.46,-0.29 8.96,-0.29 13.42,0 2.73,0.19 2.751029,2.167353 2.786103,4.444632 C 36.403382,22.006103 36.82647,26.750883 35.14,32.2 c -0.66,0.13 -1.97,0.39 -2.63,0.52 1.07,1.17 2.08,2.41 3.25,3.49 6.32,-4.5 9.68,-13.12 6.35,-20.45 C 38.41,5.51 23.6,2.31 15.96,10.06 m 7.053897,4.195588 c 1.305,0.05 6.516103,0.0511 7.826103,0.0261 L 30.83,12.63 c -1.412279,0.03603 -7.075441,-0.0072 -7.816103,5.88e-4 M 19.67,15.82 c 0.0078,0.41397 -0.01873,5.216367 0.01,7.39 4.88,0.07 9.76,0.105588 14.63,0.05 0.0054,-2.934044 0.06713,-4.938309 0.0339,-7.5 -4.88,-0.02338 -8.312279,0.0161 -14.673897,0.06 m 1.22,21.43 c 3.98,1.45 8.32,1.48 12.31,0.01 -0.66,-0.83 -2.701914,-3.554098 -3.381914,-4.364098 -2.79,0.02 -2.798385,-0.01785 -5.588385,-0.03785 C 23.579701,33.668049 21.53,36.44 20.89,37.25 z"
         id="path3013"
         sodipodi:nodetypes="ccccccccccccccccccccccccccccccccc"
         style="fill:#000000;fill-opacity:1"
         inkscape:connector-curvature="0" />
    </g>
    <text
       inkscape:export-ydpi="90.010002"
       inkscape:export-xdpi="90.010002"
       inkscape:export-filename="/home/gcc/workspace/MetroSP/res/drawable-hdpi/iconsmall.png"
       xml:space="preserve"
       style="font-size:208.3765564px;font-style:normal;font-variant:normal;font-weight:normal;font-stretch:normal;text-align:start;line-height:125%;letter-spacing:0px;word-spacing:0px;writing-mode:lr-tb;text-anchor:start;fill:#000000;fill-opacity:1;stroke:none;filter:url(#filter4007);font-family:Hemi Head 426;-inkscape-font-specification:'Hemi Head 426,'"
       x="393.26447"
       y="648.91437"
       id="text3015"
       sodipodi:linespacing="125%"
       transform="matrix(0.09376683,0,0,0.09373319,248.85236,457.71493)"><tspan
         sodipodi:role="line"
         id="tspan3017"
         x="393.26447"
         y="648.91437">SP</tspan></text>
    <rect
       inkscape:export-ydpi="90.010002"
       inkscape:export-xdpi="90.010002"
       inkscape:export-filename="/home/gcc/workspace/MetroSP/res/drawable-hdpi/iconsmall.png"
       y="472.93265"
       x="262.10147"
       height="49.919998"
       width="49.919998"
       id="rect2994"
       style="fill:none;stroke:none" />
    <rect
       inkscape:export-ydpi="90.010002"
       inkscape:export-xdpi="90.010002"
       inkscape:export-filename="/home/gcc/workspace/MetroSP/res/drawable-hdpi/iconsmall.png"
       style="fill:none;stroke:none"
       id="rect2996"
       width="41.60754"
       height="41.592697"
       x="266.25769"
       y="477.09631" />
    <rect
       inkscape:export-ydpi="90.010002"
       inkscape:export-xdpi="90.010002"
       inkscape:export-filename="/home/gcc/workspace/MetroSP/res/drawable-hdpi/iconsmall.png"
       y="478.48279"
       x="267.64462"
       height="38.819809"
       width="38.833748"
       id="rect2998"
       style="fill:none;stroke:none" />
    <g
       inkscape:export-ydpi="90.010002"
       inkscape:export-xdpi="90.010002"
       inkscape:export-filename="/home/gcc/workspace/MetroSP/res/drawable-hdpi/iconsmall.png"
       style="fill:#ff2a2a;fill-opacity:1"
       transform="matrix(0.98773428,0,0,0.98601828,260.59232,476.09214)"
       id="g3192">
      <path
         inkscape:connector-curvature="0"
         style="fill:#ff2a2a;fill-opacity:1"
         sodipodi:nodetypes="ccccccccccccccccccccccccccccccccc"
         id="path3194"
         d="m 21.5,2.75 c 8.53,-2.54 18.3,1.38 22.74,9.07 4.34,7.08 3.57,17.09 -2.05,23.29 -6.42,7.91 -19.28,9.27 -27.2,2.87 C 10.05,34.29 6.84,28.18 7.04,21.96 6.81,13.25 13.25,5.17 21.5,2.75 m -5.54,7.31 c -8.05,6.83 -6.45,21.03 2.76,26.1 0.95,-1.16 1.91,-2.32 2.87,-3.48 -0.67,-0.12 -2,-0.37 -2.66,-0.49 -1.973235,-5.587941 -1.452353,-10.298162 -1.37,-16.2 -0.0049,-1.913897 0.52,-4.42 2.76,-4.56 4.46,-0.29 8.96,-0.29 13.42,0 2.73,0.19 2.751029,2.167353 2.786103,4.444632 C 36.403382,22.006103 36.82647,26.750883 35.14,32.2 c -0.66,0.13 -1.97,0.39 -2.63,0.52 1.07,1.17 2.08,2.41 3.25,3.49 6.32,-4.5 9.68,-13.12 6.35,-20.45 C 38.41,5.51 23.6,2.31 15.96,10.06 m 7.053897,4.195588 c 1.305,0.05 6.516103,0.0511 7.826103,0.0261 L 30.83,12.63 c -1.412279,0.03603 -7.075441,-0.0072 -7.816103,5.88e-4 M 19.67,15.82 c 0.0078,0.41397 -0.01873,5.216367 0.01,7.39 4.88,0.07 9.76,0.105588 14.63,0.05 0.0054,-2.934044 0.06713,-4.938309 0.0339,-7.5 -4.88,-0.02338 -8.312279,0.0161 -14.673897,0.06 m 1.22,21.43 c 3.98,1.45 8.32,1.48 12.31,0.01 -0.66,-0.83 -2.701914,-3.554098 -3.381914,-4.364098 -2.79,0.02 -2.798385,-0.01785 -5.588385,-0.03785 C 23.579701,33.668049 21.53,36.44 20.89,37.25 z" />
    </g>
    <text
       inkscape:export-ydpi="90.010002"
       inkscape:export-xdpi="90.010002"
       inkscape:export-filename="/home/gcc/workspace/MetroSP/res/drawable-hdpi/iconsmall.png"
       transform="scale(1.0001795,0.99982054)"
       sodipodi:linespacing="125%"
       id="text3000"
       y="518.63287"
       x="285.67624"
       style="font-size:19.53530693px;font-style:normal;font-variant:normal;font-weight:normal;font-stretch:normal;text-align:start;line-height:125%;letter-spacing:0px;word-spacing:0px;writing-mode:lr-tb;text-anchor:start;fill:#000000;fill-opacity:1;stroke:none;font-family:Hemi Head 426;-inkscape-font-specification:'Hemi Head 426,'"
       xml:space="preserve"><tspan
         y="518.63287"
         x="285.67624"
         id="tspan3002"
         sodipodi:role="line">SP</tspan></text>
    <g
       id="g3012"
       transform="matrix(0.98773428,0,0,0.98601828,260.59232,476.09214)"
       style="fill:#ff2a2a;fill-opacity:1"
       inkscape:export-filename="/home/gcc/workspace/MetroSP/res/drawable-hdpi/iconsmall.png"
       inkscape:export-xdpi="90.010002"
       inkscape:export-ydpi="90.010002">
      <path
         d="m 21.5,2.75 c 8.53,-2.54 18.3,1.38 22.74,9.07 4.34,7.08 3.57,17.09 -2.05,23.29 -6.42,7.91 -19.28,9.27 -27.2,2.87 C 10.05,34.29 6.84,28.18 7.04,21.96 6.81,13.25 13.25,5.17 21.5,2.75 m -5.54,7.31 c -8.05,6.83 -6.45,21.03 2.76,26.1 0.95,-1.16 1.91,-2.32 2.87,-3.48 -0.67,-0.12 -2,-0.37 -2.66,-0.49 -1.973235,-5.587941 -1.452353,-10.298162 -1.37,-16.2 -0.0049,-1.913897 0.52,-4.42 2.76,-4.56 4.46,-0.29 8.96,-0.29 13.42,0 2.73,0.19 2.751029,2.167353 2.786103,4.444632 C 36.403382,22.006103 36.82647,26.750883 35.14,32.2 c -0.66,0.13 -1.97,0.39 -2.63,0.52 1.07,1.17 2.08,2.41 3.25,3.49 6.32,-4.5 9.68,-13.12 6.35,-20.45 C 38.41,5.51 23.6,2.31 15.96,10.06 m 7.053897,4.195588 c 1.305,0.05 6.516103,0.0511 7.826103,0.0261 L 30.83,12.63 c -1.412279,0.03603 -7.075441,-0.0072 -7.816103,5.88e-4 M 19.67,15.82 c 0.0078,0.41397 -0.01873,5.216367 0.01,7.39 4.88,0.07 9.76,0.105588 14.63,0.05 0.0054,-2.934044 0.06713,-4.938309 0.0339,-7.5 -4.88,-0.02338 -8.312279,0.0161 -14.673897,0.06 m 1.22,21.43 c 3.98,1.45 8.32,1.48 12.31,0.01 -0.66,-0.83 -2.701914,-3.554098 -3.381914,-4.364098 -2.79,0.02 -2.798385,-0.01785 -5.588385,-0.03785 C 23.579701,33.668049 21.53,36.44 20.89,37.25 z"
         id="path3014"
         sodipodi:nodetypes="ccccccccccccccccccccccccccccccccc"
         style="fill:#ff2a2a;fill-opacity:1"
         inkscape:connector-curvature="0" />
    </g>
    <text
       xml:space="preserve"
       style="font-size:19.53530693px;font-style:normal;font-variant:normal;font-weight:normal;font-stretch:normal;text-align:start;line-height:125%;letter-spacing:0px;word-spacing:0px;writing-mode:lr-tb;text-anchor:start;fill:#1a1a1a;fill-opacity:1;stroke:none;font-family:Hemi Head 426;-inkscape-font-specification:'Hemi Head 426,'"
       x="285.67624"
       y="518.63287"
       id="text3016"
       sodipodi:linespacing="125%"
       transform="scale(1.0001795,0.99982054)"
       inkscape:export-filename="/home/gcc/workspace/MetroSP/res/drawable-hdpi/iconsmall.png"
       inkscape:export-xdpi="90.010002"
       inkscape:export-ydpi="90.010002"><tspan
         sodipodi:role="line"
         id="tspan3018"
         x="285.67624"
         y="518.63287">SP</tspan></text>
  </g>
  <g
     inkscape:export-ydpi="90.010002"
     inkscape:export-xdpi="90.010002"
     inkscape:export-filename="/home/gcc/workspace/MetroSP/design/promo.png"
     id="g3020"
     transform="matrix(2.6873206,0,0,2.6826519,913.90718,441.97183)"
     style="fill:#000000;fill-opacity:1;filter:url(#filter4003)">
    <path
       d="m 21.5,2.75 c 8.53,-2.54 18.3,1.38 22.74,9.07 4.34,7.08 3.57,17.09 -2.05,23.29 -6.42,7.91 -19.28,9.27 -27.2,2.87 C 10.05,34.29 6.84,28.18 7.04,21.96 6.81,13.25 13.25,5.17 21.5,2.75 m -5.54,7.31 c -8.05,6.83 -6.45,21.03 2.76,26.1 0.95,-1.16 1.91,-2.32 2.87,-3.48 -0.67,-0.12 -2,-0.37 -2.66,-0.49 -1.973235,-5.587941 -1.452353,-10.298162 -1.37,-16.2 -0.0049,-1.913897 0.52,-4.42 2.76,-4.56 4.46,-0.29 8.96,-0.29 13.42,0 2.73,0.19 2.751029,2.167353 2.786103,4.444632 C 36.403382,22.006103 36.82647,26.750883 35.14,32.2 c -0.66,0.13 -1.97,0.39 -2.63,0.52 1.07,1.17 2.08,2.41 3.25,3.49 6.32,-4.5 9.68,-13.12 6.35,-20.45 C 38.41,5.51 23.6,2.31 15.96,10.06 m 7.053897,4.195588 c 1.305,0.05 6.516103,0.0511 7.826103,0.0261 L 30.83,12.63 c -1.412279,0.03603 -7.075441,-0.0072 -7.816103,5.88e-4 M 19.67,15.82 c 0.0078,0.41397 -0.01873,5.216367 0.01,7.39 4.88,0.07 9.76,0.105588 14.63,0.05 0.0054,-2.934044 0.06713,-4.938309 0.0339,-7.5 -4.88,-0.02338 -8.312279,0.0161 -14.673897,0.06 m 1.22,21.43 c 3.98,1.45 8.32,1.48 12.31,0.01 -0.66,-0.83 -2.701914,-3.554098 -3.381914,-4.364098 -2.79,0.02 -2.798385,-0.01785 -5.588385,-0.03785 C 23.579701,33.668049 21.53,36.44 20.89,37.25 z"
       id="path3022"
       sodipodi:nodetypes="ccccccccccccccccccccccccccccccccc"
       style="fill:#000000;fill-opacity:1"
       inkscape:connector-curvature="0" />
  </g>
  <text
     inkscape:export-ydpi="90.010002"
     inkscape:export-xdpi="90.010002"
     inkscape:export-filename="/home/gcc/workspace/MetroSP/design/promo.png"
     xml:space="preserve"
     style="font-size:208.3765564px;font-style:normal;font-variant:normal;font-weight:normal;font-stretch:normal;text-align:start;line-height:125%;letter-spacing:0px;word-spacing:0px;writing-mode:lr-tb;text-anchor:start;fill:#000000;fill-opacity:1;stroke:none;filter:url(#filter4007);font-family:Hemi Head 426;-inkscape-font-specification:'Hemi Head 426,'"
     x="393.26447"
     y="648.91437"
     id="text3024"
     sodipodi:linespacing="125%"
     transform="matrix(0.25511065,0,0,0.25501913,881.96636,391.97312)"><tspan
       sodipodi:role="line"
       id="tspan3026"
       x="393.26447"
       y="648.91437">SP</tspan></text>
  <rect
     inkscape:export-ydpi="90.010002"
     inkscape:export-xdpi="90.010002"
     inkscape:export-filename="/home/gcc/workspace/MetroSP/res/drawable-hdpi/icon.png"
     y="433.37585"
     x="918.01318"
     height="135.81694"
     width="135.81694"
     id="rect3028"
     style="fill:none;stroke:none" />
  <rect
     inkscape:export-ydpi="90.010002"
     inkscape:export-xdpi="90.010002"
     inkscape:export-filename="/home/gcc/workspace/MetroSP/design/promo.png"
     style="fill:none;stroke:none"
     id="rect3030"
     width="113.20129"
     height="113.16091"
     x="929.32092"
     y="444.70389" />
  <rect
     inkscape:export-ydpi="90.010002"
     inkscape:export-xdpi="90.010002"
     inkscape:export-filename="/home/gcc/workspace/MetroSP/design/promo.png"
     y="448.47604"
     x="933.0943"
     height="105.61674"
     width="105.65466"
     id="rect3032"
     style="fill:none;stroke:none" />
  <g
     inkscape:export-ydpi="90.010002"
     inkscape:export-xdpi="90.010002"
     inkscape:export-filename="/home/gcc/workspace/MetroSP/design/promo.png"
     style="fill:#ff2a2a;fill-opacity:1"
     transform="matrix(2.6873206,0,0,2.6826519,913.90718,441.97183)"
     id="g3034">
    <path
       inkscape:connector-curvature="0"
       style="fill:#ff2a2a;fill-opacity:1"
       sodipodi:nodetypes="ccccccccccccccccccccccccccccccccc"
       id="path3036"
       d="m 21.5,2.75 c 8.53,-2.54 18.3,1.38 22.74,9.07 4.34,7.08 3.57,17.09 -2.05,23.29 -6.42,7.91 -19.28,9.27 -27.2,2.87 C 10.05,34.29 6.84,28.18 7.04,21.96 6.81,13.25 13.25,5.17 21.5,2.75 m -5.54,7.31 c -8.05,6.83 -6.45,21.03 2.76,26.1 0.95,-1.16 1.91,-2.32 2.87,-3.48 -0.67,-0.12 -2,-0.37 -2.66,-0.49 -1.973235,-5.587941 -1.452353,-10.298162 -1.37,-16.2 -0.0049,-1.913897 0.52,-4.42 2.76,-4.56 4.46,-0.29 8.96,-0.29 13.42,0 2.73,0.19 2.751029,2.167353 2.786103,4.444632 C 36.403382,22.006103 36.82647,26.750883 35.14,32.2 c -0.66,0.13 -1.97,0.39 -2.63,0.52 1.07,1.17 2.08,2.41 3.25,3.49 6.32,-4.5 9.68,-13.12 6.35,-20.45 C 38.41,5.51 23.6,2.31 15.96,10.06 m 7.053897,4.195588 c 1.305,0.05 6.516103,0.0511 7.826103,0.0261 L 30.83,12.63 c -1.412279,0.03603 -7.075441,-0.0072 -7.816103,5.88e-4 M 19.67,15.82 c 0.0078,0.41397 -0.01873,5.216367 0.01,7.39 4.88,0.07 9.76,0.105588 14.63,0.05 0.0054,-2.934044 0.06713,-4.938309 0.0339,-7.5 -4.88,-0.02338 -8.312279,0.0161 -14.673897,0.06 m 1.22,21.43 c 3.98,1.45 8.32,1.48 12.31,0.01 -0.66,-0.83 -2.701914,-3.554098 -3.381914,-4.364098 -2.79,0.02 -2.798385,-0.01785 -5.588385,-0.03785 C 23.579701,33.668049 21.53,36.44 20.89,37.25 z" />
  </g>
  <text
     inkscape:export-ydpi="90.010002"
     inkscape:export-xdpi="90.010002"
     inkscape:export-filename="/home/gcc/workspace/MetroSP/design/promo.png"
     transform="scale(1.0001795,0.99982054)"
     sodipodi:linespacing="125%"
     id="text3038"
     y="557.55884"
     x="982.11603"
     style="font-size:53.14955139px;font-style:normal;font-variant:normal;font-weight:normal;font-stretch:normal;text-align:start;line-height:125%;letter-spacing:0px;word-spacing:0px;writing-mode:lr-tb;text-anchor:start;fill:#000000;fill-opacity:1;stroke:none;font-family:Hemi Head 426;-inkscape-font-specification:'Hemi Head 426,'"
     xml:space="preserve"><tspan
       y="557.55884"
       x="982.11603"
       id="tspan3040"
       sodipodi:role="line">SP</tspan></text>
  <g
     id="g3042"
     transform="matrix(2.6873206,0,0,2.6826519,913.90718,441.97183)"
     style="fill:#ff2a2a;fill-opacity:1"
     inkscape:export-filename="/home/gcc/workspace/MetroSP/design/promo.png"
     inkscape:export-xdpi="90.010002"
     inkscape:export-ydpi="90.010002">
    <path
       d="m 21.5,2.75 c 8.53,-2.54 18.3,1.38 22.74,9.07 4.34,7.08 3.57,17.09 -2.05,23.29 -6.42,7.91 -19.28,9.27 -27.2,2.87 C 10.05,34.29 6.84,28.18 7.04,21.96 6.81,13.25 13.25,5.17 21.5,2.75 m -5.54,7.31 c -8.05,6.83 -6.45,21.03 2.76,26.1 0.95,-1.16 1.91,-2.32 2.87,-3.48 -0.67,-0.12 -2,-0.37 -2.66,-0.49 -1.973235,-5.587941 -1.452353,-10.298162 -1.37,-16.2 -0.0049,-1.913897 0.52,-4.42 2.76,-4.56 4.46,-0.29 8.96,-0.29 13.42,0 2.73,0.19 2.751029,2.167353 2.786103,4.444632 C 36.403382,22.006103 36.82647,26.750883 35.14,32.2 c -0.66,0.13 -1.97,0.39 -2.63,0.52 1.07,1.17 2.08,2.41 3.25,3.49 6.32,-4.5 9.68,-13.12 6.35,-20.45 C 38.41,5.51 23.6,2.31 15.96,10.06 m 7.053897,4.195588 c 1.305,0.05 6.516103,0.0511 7.826103,0.0261 L 30.83,12.63 c -1.412279,0.03603 -7.075441,-0.0072 -7.816103,5.88e-4 M 19.67,15.82 c 0.0078,0.41397 -0.01873,5.216367 0.01,7.39 4.88,0.07 9.76,0.105588 14.63,0.05 0.0054,-2.934044 0.06713,-4.938309 0.0339,-7.5 -4.88,-0.02338 -8.312279,0.0161 -14.673897,0.06 m 1.22,21.43 c 3.98,1.45 8.32,1.48 12.31,0.01 -0.66,-0.83 -2.701914,-3.554098 -3.381914,-4.364098 -2.79,0.02 -2.798385,-0.01785 -5.588385,-0.03785 C 23.579701,33.668049 21.53,36.44 20.89,37.25 z"
       id="path3044"
       sodipodi:nodetypes="ccccccccccccccccccccccccccccccccc"
       style="fill:#ff2a2a;fill-opacity:1"
       inkscape:connector-curvature="0" />
  </g>
  <text
     xml:space="preserve"
     style="font-size:53.14955139px;font-style:normal;font-variant:normal;font-weight:normal;font-stretch:normal;text-align:start;line-height:125%;letter-spacing:0px;word-spacing:0px;writing-mode:lr-tb;text-anchor:start;fill:#000000;fill-opacity:1;stroke:none;font-family:Hemi Head 426;-inkscape-font-specification:'Hemi Head 426,'"
     x="982.11603"
     y="557.55884"
     id="text3046"
     sodipodi:linespacing="125%"
     transform="scale(1.0001795,0.99982054)"
     inkscape:export-filename="/home/gcc/workspace/MetroSP/design/promo.png"
     inkscape:export-xdpi="90.010002"
     inkscape:export-ydpi="90.010002"><tspan
       sodipodi:role="line"
       id="tspan3048"
       x="982.11603"
       y="557.55884">SP</tspan></text>
  <text
     inkscape:export-ydpi="90.010002"
     inkscape:export-xdpi="90.010002"
     inkscape:export-filename="/home/gcc/workspace/MetroSP/res/drawable-ldpi/metrosp.png"
     transform="matrix(0.56421666,0,0,0.56401417,194.15251,218.35066)"
     sodipodi:linespacing="125%"
     id="text4655"
     y="515.38873"
     x="334.81772"
     style="font-size:59.01164627px;font-style:normal;font-variant:normal;font-weight:normal;font-stretch:normal;text-align:start;line-height:125%;letter-spacing:0px;word-spacing:0px;writing-mode:lr-tb;text-anchor:start;fill:#333333;fill-opacity:1;stroke:none;filter:url(#filter4663);font-family:Hemi Head 426;-inkscape-font-specification:'Hemi Head 426,'"
     xml:space="preserve"><tspan
       y="515.38873"
       x="334.81772"
       id="tspan4657"
       sodipodi:role="line">METRO SP</tspan></text>
  <text
     xml:space="preserve"
     style="font-size:33.28937912px;font-style:normal;font-variant:normal;font-weight:normal;font-stretch:normal;text-align:start;line-height:125%;letter-spacing:0px;word-spacing:0px;writing-mode:lr-tb;text-anchor:start;fill:#333333;fill-opacity:1;stroke:none;font-family:Hemi Head 426;-inkscape-font-specification:'Hemi Head 426,'"
     x="381.82034"
     y="507.95502"
     id="text3830"
     sodipodi:linespacing="125%"
     transform="scale(1.0001795,0.99982054)"
     inkscape:export-filename="/home/gcc/workspace/MetroSP/res/drawable-ldpi/metrosp.png"
     inkscape:export-xdpi="90.010002"
     inkscape:export-ydpi="90.010002"><tspan
       sodipodi:role="line"
       id="tspan3832"
       x="381.82034"
       y="507.95502">METRO SP</tspan></text>
</svg>
